<?xml version="1.0" encoding="utf-8"?>
<!-- Generator: Adobe Illustrator 26.3.0, SVG Export Plug-In . SVG Version: 6.00 Build 0)  -->
<svg version="1.1" id="Layer_1" xmlns="http://www.w3.org/2000/svg" xmlns:xlink="http://www.w3.org/1999/xlink" x="0px" y="0px"
	 viewBox="0 0 510 300" style="enable-background:new 0 0 510 300;" xml:space="preserve">
<style type="text/css">
	.st0{fill:#FDFDFD;}
	.st1{fill:#AF7DB4;}
	.st2{fill:#844994;}
	.st3{fill:#834A94;}
	.st4{fill:#834A95;}
</style>
<g>
	<path class="st0" d="M404.9,33c0,79.5,0,159,0.1,238.6c0,3.4-0.4,4.5-4.2,4.4c-40.3-0.2-80.5-0.1-120.8-0.1
		c-8.8-3.3-14-10-17.3-18.5c-2-12.4-0.7-24.9-0.9-37.3c0-1.1,0.2-2.7,1.4-2.9c1.8-0.3,1.9,1.6,2.2,2.7c1.3,5.5,2.1,11.1,3.2,16.7
		c3.6,16.9,11.4,24.6,28.2,28.1c9.9,2.1,19.9,4,29.8,6.1c5.3,1.1,6,0.3,4.5-5c-1.7-6.1-3-12.3-4.8-18.3c-5.6-18.8-17-32.6-35.1-40.3
		c-7.2-3.1-14.4-6-21.6-9.1c-0.9-0.4-1.9-0.7-2.7-1.2c-1.3-0.7-3.1-1.5-2.8-3.1c0.3-2.1,2.5-1.9,4.1-1.9c10.4,0.1,20.5-1.4,30.6-3.7
		c17.7-4.8,34.3-11.9,48.3-24.1c14.7-12.8,22.7-29.2,23.4-48.5c0.5-14.2,0.6-28.3,3.3-42.2c2-10.7,5.5-20.9,12.2-29.8
		c3.6-4.8,8-8.4,13.7-10.5C401.4,32.8,403.1,31.7,404.9,33z"/>
	<path class="st0" d="M226,275.9c-38.9,0-77.9-0.1-116.8,0.1c-3.8,0-4.2-1.1-4.2-4.4c0.1-79.2,0.1-158.4,0.1-237.6
		c2.6-1.5,4.4,0.3,6.4,1.4c7.2,4.2,11.7,10.8,15,18.2c4.5,9.9,6.6,20.5,8.1,31.3c1.5,11.3,0.6,22.6,1.7,33.8
		c2,20.6,11.7,36.4,27.7,48.8c12.8,9.9,27.4,16.1,43.1,20.1c1.5,0.4,2.9,0.7,4.3,1.2c7.9,2,16,2.4,24.2,2.7c1,0,2-0.1,3,0
		c1.7,0.2,4.2-0.4,4.5,1.9c0.3,2.1-2,2.8-3.7,3.5c-9.4,3.8-18.9,7.3-28,11.9c-16,8-26.5,20.7-31.1,38.2c-1.6,6.3-3.5,12.5-5.1,18.8
		c-1.4,5.3-1.2,5.7,4.1,4.8c12.1-2.1,24.3-4.1,36.1-7.5c12.1-3.5,20-12.2,22.4-25c0.6-3.3,1-6.6,2.5-9.6c1.1-1.5,0.8-4.5,3.7-3.8
		c2.6,0.6,2.6,3.1,2.6,5.3c0.2,7.9,0.1,15.8-1,23.7C242.8,264.4,237.1,272.5,226,275.9z"/>
	<path class="st1" d="M404.9,33c-1.7,0.3-3.3,0.5-5,0.8c-8.1-1-16.3-1.1-24.1,1.7c-9.7,3.4-15.7,11-19.4,20.3
		c-5.5,13.5-8.2,27.7-8,42.3c0.1,8.5-0.6,16.9-1.3,25.3c-0.8,9.1-3.4,17.9-8.9,25.5c-1.2,0.4-2.4,0.3-3.3,1.6
		c-8.9,13.3-21.1,22.7-35.5,29.3c-1.6,0.7-2.3,1.7-2.4,3.3c-3.8,3.5-9.1,2.8-13.5,4.5c-4.2,1.6-8.7,2.2-12.3,3.2
		c6.6-1,14-1.4,21.3-2.7c2.2-0.4,4.6-1.1,6.6,0.9c-11.1,3.6-22.7,3.9-34.6,5.2c7.3,3.1,14.5,6.7,22,9.3
		c18.6,6.4,31.6,18.8,38.9,36.7c3.8,9.4,5.8,19.7,8.3,29.7c1.2,4.9-2.9,3-4.8,2.6c-11.6-2.2-23.1-4.8-34.6-7
		c-8-1.5-14.4-5.5-19.8-11.6c-4.4-5.1-6.2-11.2-7.4-17.6c-1.2-6.1-2.3-12.3-3.8-18.4c0.1,13.3-1.6,26.7,0.7,39.9
		c-4.1-1-3.5-4.5-3.5-7.3c-0.2-10.7-0.1-21.3-0.1-32c0-5-0.2-10-1.2-14.9c-2.4-11.4-1.7-22.8,0.4-34.2c0.6-3.5,0.9-6.9,0.9-10.4
		c0-26.3,0-52.6,0-78.9c0-2.8-0.6-5.7,1.6-8.1c3.5,0.9,2.3,3.9,2.4,6c0.2,16.5,0.1,33,0.1,49.4c0,7.5,0.4,15-0.4,22.5
		c-0.2,1.6-0.1,3.3-0.4,3.9c0.6-5.8,1.7-12.4,3.5-18.9c5.1-18.3,11.3-36.3,20.5-53c12.6-23,29.9-40.6,55.6-48.7
		c7-2.2,14.3-3.5,21.6-3.6c11.3-0.2,22.6-0.1,34,0c2.1,0,4.4-0.2,6.2,1.4C404.9,31.7,404.9,32.3,404.9,33z"/>
	<path class="st1" d="M105.1,32c0-0.3,0-0.7,0-1c0.8-0.7,1.7-1.2,2.7-1.2c13.6,0,27.3-1.2,40.8,0.5c29,3.8,50.1,19.8,65.5,44.1
		c11,17.3,18,36.2,23.6,55.8c1.6,5.6,2.9,11.3,4.4,16.9c1.3,7.2,1.4,14.6,4.7,21.3c1,7.5,1.4,15.1,2.2,22.6c0.1,1.2-0.1,2.3-1.1,3.2
		c-2.9,1.6-4.5-2-7-1.8c-7.4-1.9-14.8-3.7-22.2-5.9c-20.7-6.2-37.8-17.4-49.9-35.3c-7.9-11.6-11.1-24.9-11.1-38.8
		c0-14.7-0.8-29.3-4.3-43.6c-1.4-5.9-3.4-11.5-6.2-16.8c-6.7-12.8-17-19.1-31.5-18.5C112.2,33.4,108.4,34.3,105.1,32z"/>
	<path class="st2" d="M105.1,32c7.6,0.1,15.3-0.5,22.9,1.1c8.2,1.8,13.7,7.5,18.3,14.2c6.6,9.6,8.8,20.6,10.8,31.7
		c2,10.8,2.2,21.8,2.1,32.7c-0.1,13,2.7,25.6,9.5,36.6c8.1,13,19.4,23,33.3,29.8c12,5.9,24.6,9.7,37.7,12c1,0.2,1.3,0.9,1.4,1.8
		c-7.4,1.8-14.7-0.5-22.1-0.9c-2.5-0.2-5.3,0.1-7.8-1.1c-19-4-36.4-11.4-51.4-24c-17.4-14.5-25.4-33.3-25.4-55.7
		c0-17.7-1-35.3-7.3-52.1c-3.5-9.2-8.4-17.4-17.3-22.4c-1.4-0.8-2.7-2-4.5-1.8C105.1,33.3,105.1,32.7,105.1,32z"/>
	<path class="st3" d="M299.1,189c-6.7,0.7-13.5,1.1-20.1,2.2c-4.3,0.7-8.5,0.4-12.9,0.6c0.6-1.7,2-1.6,3.2-1.9
		c9.3-2.5,18.9-4.1,27.9-7.9c0.2-1.4,1.3-1.7,2.4-2.2c12.3-5.5,22.7-13.6,31.6-23.7c2-2.3,2.9-5.6,5.9-7.2c5.1-7.9,7.8-16.7,8.9-26
		c1.6-13.2,0.3-26.5,2.1-39.7c1.9-13.7,4.7-27.1,13.2-38.6c6.1-8.2,14.5-12.3,24.7-12.6c4.1-0.2,8.3,0,12.5-0.1
		c1.3,0,2.5-0.1,1.6,1.8c-16,8-21.3,23-24.7,38.9c-2.3,10.9-3.5,22-3.2,33.2c1.3,36-16.7,59.6-48.1,74.5
		C316,184.1,307.7,187.1,299.1,189z"/>
	<path class="st1" d="M211.1,189.9c10,0,19.8,2.6,29.8,2c2.3-0.2,4.1,1.1,6.1,2c-1,17.8-5.6,35.1-10.4,52.2
		c-10.3,23.3-39.1,20.4-60,26.5c-3.6,0.8-5.1,0.3-3.8-3.8c10.7-50.5,24.1-56.3,69.4-75C231.7,192.7,221.2,193.1,211.1,189.9z"/>
	<path class="st4" d="M244,71.1c-4.5-11.7-10.3-17.9-21.3-22.8c4.8-2.2,13.7-2.4,19.4,2.1c8,6.2,14.3,6.2,22.4,0.1
		c5.5-4.1,13-4.1,21.5-2.7c-12.7,4.5-19.2,13.2-22.9,24.3c-1.8,1.4-1.1,3.4-1.1,5.1c0,27.8-0.1,55.5,0.1,83.3
		c0.1,6.9-1.8,13.4-2.4,20.2c-0.8,8.1-0.2,15.8,1.3,23.6c1.5,7.8,0.8,15.6,0.9,23.3c0.1,8,0,16,0.1,23.9c0,2.3-0.1,4.7,2,6.4
		c3.3,7.8,9.1,13.4,16,18c-18,0-36,0-54,0c8.6-4.7,15.2-11.1,18.1-20.8c2-10.4,2-20.9,0.6-31.4c-0.7-5.4,0.1-10.9-0.1-16.3
		c0-4.6-0.5-9.3,2.4-13.4c1.9-4,0-8-0.3-11.9c-0.4-4.7-0.5-9.5-0.8-14.2c-2.4-5.9-1.7-12.1-1.4-18.1c0.4-7.4,0.8-14.8,0.6-22.3
		c-0.4-15.9,0.6-31.7,0.3-47.6C245.4,76.9,245.1,73.9,244,71.1z"/>
</g>
</svg>
